#Comment line ignore any data following # character 
#Hierarchical Translation and Rotation (.htr) file 
[Header]	
#Header keywords are followed by a single value 
FileType HTR		#Single word string
DataType HTRS		#Translation followed by rotation and scale data
FileVersion 1		#integer
NumSegments 64		#integer
NumFrames 3		#integer
DataFrameRate 30		#integer, data frame rate in this file
EulerRotationOrder ZYX
CalibrationUnits mm
RotationUnits Degrees
GlobalAxisofGravity Y
BoneLengthAxis Y
ScaleFactor 1.00
[SegmentNames&Hierarchy]
#CHILD	PARENT
Pinger_Root GLOBAL
Pelvis Pinger_Root
L_Hip Pelvis
R_Hip Pelvis
Rear_Leg01 Pelvis
Spine1 Pelvis
L_Leg01 L_Hip
L_Leg02 L_Leg01
L_Leg03 L_Leg02
L_Foot L_Leg03
L_Toe1_01 L_Foot
L_Toe2_01 L_Foot
L_Toe3_01 L_Foot
planeAlignerLeft L_Foot
L_Toe1_02 L_Toe1_01
L_Toe1_03 L_Toe1_02
L_Toe2_02 L_Toe2_01
L_Toe2_03 L_Toe2_02
L_Toe3_02 L_Toe3_01
L_Toe3_03 L_Toe3_02
planeLockWeightLeft planeAlignerLeft
R_Leg01 R_Hip
R_Leg02 R_Leg01
R_Leg03 R_Leg02
R_Foot R_Leg03
planeAlignerRight R_Foot
R_Toe1_01 R_Foot
R_Toe2_01 R_Foot
R_Toe3_01 R_Foot
planeLockWeightRight planeAlignerRight
R_Toe1_02 R_Toe1_01
R_Toe1_03 R_Toe1_02
R_Toe2_02 R_Toe2_01
R_Toe2_03 R_Toe2_02
R_Toe3_02 R_Toe3_01
R_Toe3_03 R_Toe3_02
Rear_Leg02 Rear_Leg01
Rear_Leg03 Rear_Leg02
Rear_Leg04 Rear_Leg03
Rear_Foot Rear_Leg04
planeAlignerCenter Rear_Foot
Rear_Toe1_01 Rear_Foot
Rear_Toe2_01 Rear_Foot
Rear_Toe3_01 Rear_Foot
planeLockWeightCenter planeAlignerCenter
Rear_Toe1_02 Rear_Toe1_01
Rear_Toe1_03 Rear_Toe1_02
Rear_Toe2_02 Rear_Toe2_01
Rear_Toe2_03 Rear_Toe2_02
Rear_Toe3_02 Rear_Toe3_01
Rear_Toe3_03 Rear_Toe3_02
Back_Bone Spine1
Head Spine1
Motor_Bone Back_Bone
Ping_Mechanism Back_Bone
BN_LookIK Head
bottomMouth Head
L_Mouth01 Head
L_mouthFront Head
mouthGun Head
R_Mouth01 Head
R_mouthFront Head
TopMouth Head
weapon_bone Head
[BasePosition]
#SegmentName Tx, Ty, Tz, Rx, Ry, Rz, BoneLength
Pinger_Root 0.000000 0.000000 0.000000 -90.000000 0.000000 0.000000 10.000000 
Pelvis 0.000000 0.000000 0.000000 0.000000 0.000000 0.000000 10.000000 
L_Hip 0.000000 0.000000 0.000000 0.000000 0.000000 0.000000 10.000000 
R_Hip 0.000000 0.000000 0.000000 0.000000 0.000000 0.000000 10.000000 
Rear_Leg01 0.000000 0.000000 0.000000 0.000000 0.000000 0.000000 10.000000 
Spine1 0.000000 0.000000 0.000000 0.000000 0.000000 0.000000 10.000000 
L_Leg01 0.000000 0.000000 0.000000 0.000000 0.000000 0.000000 10.000000 
L_Leg02 0.000000 0.000000 0.000000 0.000000 0.000000 0.000000 10.000000 
L_Leg03 0.000000 0.000000 0.000000 0.000000 0.000000 0.000000 10.000000 
L_Foot 0.000000 0.000000 0.000000 0.000000 0.000000 0.000000 10.000000 
L_Toe1_01 0.000000 0.000000 0.000000 0.000000 0.000000 0.000000 10.000000 
L_Toe2_01 0.000000 0.000000 0.000000 0.000000 0.000000 0.000000 10.000000 
L_Toe3_01 0.000000 0.000000 0.000000 0.000000 0.000000 0.000000 10.000000 
planeAlignerLeft 0.000000 0.000000 0.000000 0.000000 0.000000 0.000000 10.000000 
L_Toe1_02 0.000000 0.000000 0.000000 0.000000 0.000000 0.000000 10.000000 
L_Toe1_03 0.000000 0.000000 0.000000 0.000000 0.000000 0.000000 10.000000 
L_Toe2_02 0.000000 0.000000 0.000000 0.000000 0.000000 0.000000 10.000000 
L_Toe2_03 0.000000 0.000000 0.000000 0.000000 0.000000 0.000000 10.000000 
L_Toe3_02 0.000000 0.000000 0.000000 0.000000 0.000000 0.000000 10.000000 
L_Toe3_03 0.000000 0.000000 0.000000 0.000000 0.000000 0.000000 10.000000 
planeLockWeightLeft 0.000000 0.000000 0.000000 0.000000 0.000000 0.000000 10.000000 
R_Leg01 0.000000 0.000000 0.000000 0.000000 0.000000 0.000000 10.000000 
R_Leg02 0.000000 0.000000 0.000000 0.000000 0.000000 0.000000 10.000000 
R_Leg03 0.000000 0.000000 0.000000 0.000000 0.000000 0.000000 10.000000 
R_Foot 0.000000 0.000000 0.000000 0.000000 0.000000 0.000000 10.000000 
planeAlignerRight 0.000000 0.000000 0.000000 0.000000 0.000000 0.000000 10.000000 
R_Toe1_01 0.000000 0.000000 0.000000 0.000000 0.000000 0.000000 10.000000 
R_Toe2_01 0.000000 0.000000 0.000000 0.000000 0.000000 0.000000 10.000000 
R_Toe3_01 0.000000 0.000000 0.000000 0.000000 0.000000 0.000000 10.000000 
planeLockWeightRight 0.000000 0.000000 0.000000 0.000000 0.000000 0.000000 10.000000 
R_Toe1_02 0.000000 0.000000 0.000000 0.000000 0.000000 0.000000 10.000000 
R_Toe1_03 0.000000 0.000000 0.000000 0.000000 0.000000 0.000000 10.000000 
R_Toe2_02 0.000000 0.000000 0.000000 0.000000 0.000000 0.000000 10.000000 
R_Toe2_03 0.000000 0.000000 0.000000 0.000000 0.000000 0.000000 10.000000 
R_Toe3_02 0.000000 0.000000 0.000000 0.000000 0.000000 0.000000 10.000000 
R_Toe3_03 0.000000 0.000000 0.000000 0.000000 0.000000 0.000000 10.000000 
Rear_Leg02 0.000000 0.000000 0.000000 0.000000 0.000000 0.000000 10.000000 
Rear_Leg03 0.000000 0.000000 0.000000 0.000000 0.000000 0.000000 10.000000 
Rear_Leg04 0.000000 0.000000 0.000000 0.000000 0.000000 0.000000 10.000000 
Rear_Foot 0.000000 0.000000 0.000000 0.000000 0.000000 0.000000 10.000000 
planeAlignerCenter 0.000000 0.000000 0.000000 0.000000 0.000000 0.000000 10.000000 
Rear_Toe1_01 0.000000 0.000000 0.000000 0.000000 0.000000 0.000000 10.000000 
Rear_Toe2_01 0.000000 0.000000 0.000000 0.000000 0.000000 0.000000 10.000000 
Rear_Toe3_01 0.000000 0.000000 0.000000 0.000000 0.000000 0.000000 10.000000 
planeLockWeightCenter 0.000000 0.000000 0.000000 0.000000 0.000000 0.000000 10.000000 
Rear_Toe1_02 0.000000 0.000000 0.000000 0.000000 0.000000 0.000000 10.000000 
Rear_Toe1_03 0.000000 0.000000 0.000000 0.000000 0.000000 0.000000 10.000000 
Rear_Toe2_02 0.000000 0.000000 0.000000 0.000000 0.000000 0.000000 10.000000 
Rear_Toe2_03 0.000000 0.000000 0.000000 0.000000 0.000000 0.000000 10.000000 
Rear_Toe3_02 0.000000 0.000000 0.000000 0.000000 0.000000 0.000000 10.000000 
Rear_Toe3_03 0.000000 0.000000 0.000000 0.000000 0.000000 0.000000 10.000000 
Back_Bone 0.000000 0.000000 0.000000 0.000000 0.000000 0.000000 10.000000 
Head 0.000000 0.000000 0.000000 0.000000 0.000000 0.000000 10.000000 
Motor_Bone 0.000000 0.000000 0.000000 0.000000 0.000000 0.000000 10.000000 
Ping_Mechanism 0.000000 0.000000 0.000000 0.000000 0.000000 0.000000 10.000000 
BN_LookIK 0.000000 0.000000 0.000000 0.000000 0.000000 0.000000 10.000000 
bottomMouth 0.000000 0.000000 0.000000 0.000000 0.000000 0.000000 10.000000 
L_Mouth01 0.000000 0.000000 0.000000 0.000000 0.000000 0.000000 10.000000 
L_mouthFront 0.000000 0.000000 0.000000 0.000000 0.000000 0.000000 10.000000 
mouthGun 0.000000 0.000000 0.000000 0.000000 0.000000 0.000000 10.000000 
R_Mouth01 0.000000 0.000000 0.000000 0.000000 0.000000 0.000000 10.000000 
R_mouthFront 0.000000 0.000000 0.000000 0.000000 0.000000 0.000000 10.000000 
TopMouth 0.000000 0.000000 0.000000 0.000000 0.000000 0.000000 10.000000 
weapon_bone 0.000000 0.000000 0.000000 0.000000 0.000000 0.000000 10.000000 
#Beginning of Data. Separated by tabs
#Fr	Tx	Ty	Tz	Rx	Ry	Rz	SF
[Pinger_Root]
113 0.000000 0.000000 0.000000 -0.000075 -0.000000 -0.000020 0.000000
114 0.000000 0.000000 0.000000 -0.000075 -0.000000 -0.000020 0.000000
115 0.000000 0.000000 0.000000 -0.000075 -0.000000 -0.000020 0.000000
[Pelvis]
113 72.227875 916.536316 4589.497559 -102.278267 -86.590157 94.663307 4680.677734
114 72.227875 916.536316 4587.104980 -101.733330 -86.431580 94.117126 4678.331543
115 72.227875 916.536316 4585.451660 -101.234772 -86.272491 93.617371 4676.710449
[L_Hip]
113 5.766392 125.831482 872.656799 160.158691 -45.484905 122.312202 881.701050
114 5.766392 125.831482 872.656799 160.158691 -45.484894 122.312202 881.701050
115 5.766392 125.831482 872.656799 160.158691 -45.484905 122.312202 881.701050
[R_Hip]
113 5.765438 125.836372 -872.654907 38.087841 49.812687 125.703735 881.699829
114 5.765438 125.836372 -872.654907 38.087830 49.812672 125.703735 881.699829
115 5.765438 125.836372 -872.654907 38.087841 49.812687 125.703735 881.699829
[Rear_Leg01]
113 -192.298416 -925.602966 -0.001907 169.651917 1.796546 -160.262924 945.367432
114 -192.298416 -925.602966 -0.001907 169.652191 1.798240 -160.392868 945.367432
115 -192.298416 -925.602966 -0.001907 169.652451 1.799936 -160.522812 945.367432
[Spine1]
113 290.604584 5.007505 0.000477 7.266872 -0.620856 19.940872 290.647736
114 290.604584 5.007505 0.000477 7.267290 -0.618798 19.732172 290.647736
115 290.604584 5.007505 0.000477 7.267699 -0.616739 19.523481 290.647736
[L_Leg01]
113 761.932007 -0.002384 -0.069261 24.228201 -14.125228 -15.877198 761.932068
114 761.932007 -0.002384 -0.069261 24.105803 -14.167887 -15.743917 761.932068
115 761.932007 -0.002384 -0.069261 24.067142 -14.173407 -15.706454 761.932068
[L_Leg02]
113 1441.140503 -0.000954 -0.000715 1.441494 -0.148203 -119.289749 1441.140503
114 1441.140503 -0.000954 -0.000715 1.467569 -0.148591 -119.314308 1441.140503
115 1441.140503 -0.000954 -0.000715 1.493644 -0.148968 -119.338829 1441.140503
[L_Leg03]
113 1686.963989 -0.000715 -0.000954 -0.021806 0.010102 116.206329 1686.963989
114 1686.963989 -0.000715 -0.000954 -0.022312 0.010975 116.377914 1686.963989
115 1686.963989 -0.000715 -0.000954 -0.022816 0.011850 116.549515 1686.963989
[L_Foot]
113 3041.570068 -30.715107 11.297464 2.152957 13.454036 53.907394 3041.746094
114 3041.570068 -30.715107 11.297464 2.156328 13.447102 53.830101 3041.746094
115 3041.570068 -30.715107 11.297464 2.159708 13.440170 53.752827 3041.746094
[L_Toe1_01]
113 -188.216690 -224.732346 -21.137953 93.722733 -6.860041 -171.996933 293.899567
114 -188.216690 -224.732346 -21.137953 93.723236 -6.859686 -172.000717 293.899567
115 -188.216690 -224.732346 -21.137953 93.723755 -6.859334 -172.004501 293.899567
[L_Toe2_01]
113 200.746536 -219.926590 148.838394 -90.038338 -26.311630 -52.650242 332.896027
114 200.746536 -219.926590 148.838394 -90.040390 -26.311619 -52.646324 332.896027
115 200.746536 -219.926590 148.838394 -90.042442 -26.311609 -52.642410 332.896027
[L_Toe3_01]
113 188.832520 -219.859131 -191.078659 -99.786522 13.850871 -67.647270 347.140900
114 188.832520 -219.859131 -191.078659 -99.786278 13.852559 -67.643562 347.140900
115 188.832520 -219.859131 -191.078659 -99.786064 13.854255 -67.639893 347.140900
[planeAlignerLeft]
113 32.984352 -593.045776 101.090523 169.309860 -76.313667 89.966942 602.503601
114 33.003662 -592.946106 101.066803 169.309738 -76.313049 89.967010 602.402588
115 33.022964 -592.846436 101.043091 169.309616 -76.312431 89.967056 602.301575
[L_Toe1_02]
113 413.761139 0.000477 0.000000 0.001384 -25.977573 0.001384 413.761139
114 413.761139 0.000477 0.000000 0.001384 -25.978989 0.001384 413.761139
115 413.761139 0.000477 0.000000 0.001384 -25.980398 0.001384 413.761139
[L_Toe1_03]
113 464.317322 0.000358 -0.000089 0.003737 53.392338 0.003737 464.317322
114 464.317322 0.000358 -0.000089 0.003737 53.397076 0.003737 464.317322
115 464.317322 0.000358 -0.000089 0.003738 53.401810 0.003738 464.317322
[L_Toe2_02]
113 342.235809 -0.000477 0.000238 0.001188 -72.438812 0.001188 342.235809
114 342.235809 -0.000477 0.000238 0.001188 -72.444923 0.001188 342.235809
115 342.235809 -0.000477 0.000238 0.001188 -72.451080 0.001188 342.235809
[L_Toe2_03]
113 420.210846 -0.000715 0.000000 0.029281 85.405823 0.029281 420.210846
114 420.210846 -0.000715 0.000000 0.029309 85.410164 0.029309 420.210846
115 420.210846 -0.000715 0.000000 0.029337 85.414482 0.029337 420.210846
[L_Toe3_02]
113 329.270111 0.000954 0.000000 0.001178 -80.457069 0.001178 329.270111
114 329.270111 0.000954 0.000000 0.001178 -80.468735 0.001178 329.270111
115 329.270111 0.000954 0.000000 0.001178 -80.480331 0.001178 329.270111
[L_Toe3_03]
113 439.137451 -0.001907 0.000954 -179.995987 78.573761 -179.992462 439.137451
114 439.137451 -0.001907 0.000954 -179.995987 78.569229 -179.992477 439.137451
115 439.137451 -0.001907 0.000954 -179.995987 78.564636 -179.992477 439.137451
[planeLockWeightLeft]
113 999.998962 0.098211 0.075965 -0.011826 -0.004376 0.005620 999.999023
114 999.998962 0.098213 0.075964 -0.011826 -0.004376 0.005620 999.999023
115 999.998962 0.098215 0.075963 -0.011826 -0.004376 0.005620 999.999023
[R_Leg01]
113 761.455627 -0.001907 -0.000358 119.741112 -2.759175 40.049988 761.455688
114 761.455627 -0.001907 -0.000358 119.812843 -3.068161 39.828426 761.455688
115 761.455627 -0.001907 -0.000358 119.853416 -3.252421 39.695236 761.455688
[R_Leg02]
113 1441.140625 0.000000 -0.000238 -0.846515 -0.027532 -105.521530 1441.140625
114 1441.140625 0.000000 -0.000238 -0.858829 -0.031020 -105.865799 1441.140625
115 1441.140625 0.000000 -0.000238 -0.871121 -0.034582 -106.210014 1441.140625
[R_Leg03]
113 1686.963989 0.000954 0.001431 0.065932 -0.033582 127.682564 1686.963989
114 1686.963989 0.000954 0.001431 0.066507 -0.033841 127.775284 1686.963989
115 1686.963989 0.000954 0.001431 0.067080 -0.034101 127.868011 1686.963989
[R_Foot]
113 3041.560059 -30.531288 -11.204481 -1.178821 -24.854403 52.193180 3041.734131
114 3041.560059 -30.531288 -11.204481 -1.166919 -24.851274 52.239529 3041.734131
115 3041.560059 -30.531288 -11.204481 -1.155014 -24.848171 52.285877 3041.734131
[planeAlignerRight]
113 -127.151978 -574.063904 -312.912720 -36.631088 -71.401398 -64.301376 666.056580
114 -127.129761 -573.963379 -312.886047 -36.628906 -71.398926 -64.303116 665.953186
115 -127.107544 -573.862854 -312.859375 -36.626736 -71.396416 -64.304817 665.849731
[R_Toe1_01]
113 -188.383347 -224.864899 21.052242 76.765007 -0.421393 -172.756149 294.101532
114 -188.383347 -224.864899 21.052242 76.765205 -0.422364 -172.760071 294.101532
115 -188.383347 -224.864899 21.052242 76.765427 -0.423335 -172.763992 294.101532
[R_Toe2_01]
113 200.637817 -220.002121 -148.787384 -91.731201 32.876961 -59.158161 332.857574
114 200.637817 -220.002121 -148.787384 -91.729492 32.877415 -59.154747 332.857574
115 200.637817 -220.002121 -148.787384 -91.727776 32.877865 -59.151325 332.857574
[R_Toe3_01]
113 188.606735 -220.092957 191.126343 -73.222420 -8.462961 -73.733871 347.192566
114 188.606735 -220.092957 191.126343 -73.221901 -8.463835 -73.730675 347.192566
115 188.606735 -220.092957 191.126343 -73.221390 -8.464703 -73.727493 347.192566
[planeLockWeightRight]
113 999.999329 0.000000 0.075994 -0.011823 -0.004379 -0.000027 999.999329
114 999.999329 0.000000 0.075994 -0.011823 -0.004379 -0.000027 999.999329
115 999.999329 0.000000 0.075994 -0.011823 -0.004379 -0.000027 999.999329
[R_Toe1_02]
113 413.762085 0.000477 -0.000119 0.001394 -24.648888 0.001394 413.762085
114 413.762085 0.000477 -0.000119 0.001394 -24.637796 0.001394 413.762085
115 413.762085 0.000477 -0.000119 0.001394 -24.626707 0.001394 413.762085
[R_Toe1_03]
113 464.317810 0.000000 0.001088 0.006635 69.623520 0.006635 464.317810
114 464.317810 0.000000 0.001088 0.006636 69.627792 0.006636 464.317810
115 464.317810 0.000000 0.001088 0.006638 69.632103 0.006638 464.317810
[R_Toe2_02]
113 342.234741 -0.000954 0.000238 0.001197 -67.236099 0.001197 342.234741
114 342.234741 -0.000954 0.000238 0.001197 -67.239052 0.001197 342.234741
115 342.234741 -0.000954 0.000238 0.001197 -67.242050 0.001197 342.234741
[R_Toe2_03]
113 420.210846 0.000715 -0.000268 0.008230 73.602226 0.008230 420.210846
114 420.210846 0.000715 -0.000268 0.008235 73.613327 0.008235 420.210846
115 420.210846 0.000715 -0.000268 0.008241 73.624451 0.008241 420.210846
[R_Toe3_02]
113 329.270355 -0.000477 -0.000954 0.001184 -74.534164 0.001184 329.270355
114 329.270355 -0.000477 -0.000954 0.001184 -74.536392 0.001184 329.270355
115 329.270355 -0.000477 -0.000954 0.001184 -74.538597 0.001184 329.270355
[R_Toe3_03]
113 439.137939 0.000238 0.001431 -0.011576 83.292816 -0.008074 439.137939
114 439.137939 0.000238 0.001431 -0.011593 83.304291 -0.008090 439.137939
115 439.137939 0.000238 0.001431 -0.011610 83.315834 -0.008107 439.137939
[Rear_Leg02]
113 1162.777710 -0.029802 0.005960 0.336831 -2.967776 -117.718887 1162.777710
114 1162.777710 -0.029802 0.005960 0.337984 -2.967983 -117.745247 1162.777710
115 1162.777710 -0.029802 0.005960 0.339137 -2.968189 -117.771584 1162.777710
[Rear_Leg03]
113 607.192505 -0.013351 -0.073195 0.006512 -0.001993 62.252327 607.192505
114 607.192505 -0.013351 -0.073195 0.006512 -0.001993 62.243084 607.192505
115 607.192505 -0.013351 -0.073195 0.006512 -0.001992 62.233837 607.192505
[Rear_Leg04]
113 995.874512 -0.020504 -0.011921 -0.039953 -0.016592 54.167282 995.874573
114 995.874512 -0.020504 -0.011921 -0.039956 -0.016585 54.188122 995.874573
115 995.874512 -0.020504 -0.011921 -0.039959 -0.016577 54.208965 995.874573
[Rear_Foot]
113 3096.176270 -0.067472 -0.041425 -142.620148 85.800362 49.693069 3096.176270
114 3096.176270 -0.067472 -0.041425 -142.616577 85.800499 49.693913 3096.176270
115 3096.176270 -0.067472 -0.041425 -142.612961 85.800629 49.694759 3096.176270
[planeAlignerCenter]
113 1.039238 -15.215759 -774.928589 12.240772 -0.001473 179.998184 775.078613
114 1.039305 -15.215302 -775.300598 12.240769 -0.001473 179.998184 775.450623
115 1.039371 -15.214844 -775.672485 12.240769 -0.001473 179.998184 775.822388
[Rear_Toe1_01]
113 0.653352 83.966492 -371.173737 0.292218 41.672756 90.412170 380.553192
114 0.653352 83.966492 -371.173737 0.292214 41.728413 90.412727 380.553192
115 0.653352 83.966492 -371.173737 0.292202 41.784073 90.413261 380.553192
[Rear_Toe2_01]
113 178.200760 -294.826019 -362.060547 -5.776809 36.103634 -62.495098 499.765686
114 178.200760 -294.826019 -362.060547 -5.770088 36.140263 -62.493690 499.765686
115 178.200760 -294.826019 -362.060547 -5.763357 36.176868 -62.492264 499.765686
[Rear_Toe3_01]
113 -153.359680 -308.780914 -362.060852 2.275822 35.572987 -115.742554 499.952881
114 -153.359680 -308.780914 -362.060852 2.271876 35.608112 -115.743584 499.952881
115 -153.359680 -308.780914 -362.060852 2.267931 35.643242 -115.744606 499.952881
[planeLockWeightCenter]
113 1000.000244 0.000056 0.076248 -0.011814 -0.004373 -0.000015 1000.000244
114 1000.000244 0.000053 0.076248 -0.011814 -0.004373 -0.000015 1000.000244
115 1000.000244 0.000051 0.076248 -0.011814 -0.004373 -0.000015 1000.000244
[Rear_Toe1_02]
113 379.707825 0.194073 0.000477 -0.000252 -31.816511 0.006940 379.707855
114 379.707825 0.194073 0.000477 -0.000251 -31.804831 0.006939 379.707855
115 379.707825 0.194073 0.000477 -0.000250 -31.793140 0.006939 379.707855
[Rear_Toe1_03]
113 500.129700 0.165701 0.000119 -0.000056 52.366283 0.007333 500.129761
114 500.129700 0.165701 0.000119 -0.000068 52.242863 0.007323 500.129761
115 500.129700 0.165701 0.000119 -0.000081 52.119438 0.007313 500.129761
[Rear_Toe2_02]
113 340.494507 0.000238 -0.000954 0.001178 -80.365753 0.001178 340.494507
114 340.494507 0.000238 -0.000954 0.001178 -80.329147 0.001178 340.494507
115 340.494507 0.000238 -0.000954 0.001178 -80.292564 0.001178 340.494507
[Rear_Toe2_03]
113 433.103577 0.000000 0.000238 0.081270 88.345306 0.081270 433.103546
114 433.103577 0.000000 0.000238 0.079416 88.306267 0.079416 433.103546
115 433.103577 0.000000 0.000238 0.077646 88.267876 0.077646 433.103546
[Rear_Toe3_02]
113 340.494141 -0.000358 -0.000477 0.001179 -78.979202 0.001179 340.494171
114 340.494141 -0.000358 -0.000477 0.001179 -78.943871 0.001179 340.494171
115 340.494141 -0.000358 -0.000477 0.001179 -78.908577 0.001179 340.494171
[Rear_Toe3_03]
113 433.103577 0.001431 -0.000238 -0.016456 85.520523 -0.012956 433.103546
114 433.103577 0.001431 -0.000238 -0.016335 85.483513 -0.012836 433.103546
115 433.103577 0.001431 -0.000238 -0.016217 85.446281 -0.012717 433.103546
[Back_Bone]
113 1312.175781 -701.934692 0.000954 1.540797 0.170282 -85.990082 1488.125488
114 1312.175781 -701.934692 0.000954 1.538243 0.149336 -85.830391 1488.125488
115 1312.175781 -701.934692 0.000954 1.526038 0.119795 -85.786087 1488.125488
[Head]
113 1406.159424 809.709290 0.001431 -0.002232 -1.239513 8.291941 1622.625488
114 1406.159424 809.709290 0.001431 -0.001602 -1.411115 7.901901 1622.625488
115 1406.159424 809.709290 0.001431 -0.000993 -1.432523 7.734998 1622.625488
[Motor_Bone]
113 1158.364380 -417.834747 0.000477 -0.095385 0.076104 -105.915703 1231.419434
114 1158.364380 -417.834747 0.000477 -0.095385 0.076104 -105.915703 1231.419434
115 1158.364380 -417.834747 0.000477 -0.095385 0.076104 -105.915703 1231.419434
[Ping_Mechanism]
113 1230.735107 -440.366150 -0.713908 0.000103 -0.000053 82.120995 1307.146362
114 1231.323120 -440.640198 -0.636343 0.000103 -0.000053 82.120995 1307.792358
115 1231.911133 -440.914246 -0.558777 0.000103 -0.000053 82.120995 1308.438354
[BN_LookIK]
113 193.241119 1380.371704 -0.002861 0.000000 89.965736 -31.038179 1393.832153
114 193.241119 1380.371704 -0.002861 0.000000 89.965736 -31.038179 1393.832153
115 193.241119 1380.371704 -0.002861 0.000000 89.965736 -31.038179 1393.832153
[bottomMouth]
113 -435.092926 615.759399 -0.000954 -0.000022 0.000016 73.527184 753.966492
114 -435.092926 615.759399 -0.000954 -0.000022 0.000016 73.527184 753.966492
115 -435.092926 615.759399 -0.000954 -0.000022 0.000016 73.527184 753.966492
[L_Mouth01]
113 554.440979 7.658243 838.222046 150.204178 23.759130 109.605339 1005.027161
114 554.440979 7.658243 838.222046 150.204178 23.759130 109.605339 1005.027161
115 554.440979 7.658243 838.222046 150.204178 23.759130 109.605339 1005.027161
[L_mouthFront]
113 551.629089 934.514771 339.150421 0.000081 2.804060 79.119301 1136.941284
114 551.629089 934.514771 339.150421 0.000081 2.804060 79.119301 1136.941284
115 551.629089 934.514771 339.150421 0.000081 2.804060 79.119301 1136.941284
[mouthGun]
113 55.332661 1627.420898 0.000000 0.000023 0.000009 -11.038128 1628.361328
114 55.332661 1627.420898 0.000000 0.000023 0.000009 -11.038128 1628.361328
115 55.332661 1627.420898 0.000000 0.000023 0.000009 -11.038128 1628.361328
[R_Mouth01]
113 554.442383 7.659197 -838.223938 29.795891 -23.759109 109.605331 1005.029541
114 554.442383 7.659197 -838.223938 29.795891 -23.759109 109.605331 1005.029541
115 554.442383 7.659197 -838.223938 29.795891 -23.759109 109.605331 1005.029541
[R_mouthFront]
113 551.629089 934.514282 -339.151367 0.000029 -2.803930 79.119133 1136.941162
114 551.629089 934.514282 -339.151367 0.000029 -2.803930 79.119133 1136.941162
115 551.629089 934.514282 -339.151367 0.000029 -2.803930 79.119133 1136.941162
[TopMouth]
113 461.269867 -56.106091 -0.008583 -0.000059 -0.000268 92.025169 464.669525
114 461.269867 -56.106091 -0.008583 -0.000059 -0.000268 92.025169 464.669525
115 461.269867 -56.106091 -0.008583 -0.000059 -0.000268 92.025169 464.669525
[weapon_bone]
113 -987.239868 1448.372803 0.001431 0.000000 89.965736 -31.038221 1752.833740
114 -987.239868 1448.372803 0.001431 0.000000 89.965736 -31.038221 1752.833740
115 -987.239868 1448.372803 0.001431 0.000000 89.965736 -31.038221 1752.833740
